<svg xmlns="http://www.w3.org/2000/svg"  viewBox="0 0 50 50" width="500px" height="500px"><path d="M 11 0 C 9.897 0 9 0.897 9 2 L 9 19 C 9 20.103 9.897 21 11 21 L 13.546875 21 C 13.341875 20.357 13.197422 19.687 13.107422 19 L 11 19 L 11 2 L 38 2 L 38.001953 18.865234 C 38.499953 19.354234 38.945984 19.894516 39.333984 20.478516 C 39.739984 20.111516 40 19.588 40 19 L 40 2 C 40 0.897 39.103 0 38 0 L 11 0 z M 24.5 6 C 23.083334 6 21.893559 6.5672556 21.126953 7.4296875 C 20.360347 8.2921194 20 9.4027779 20 10.5 C 20 11.597222 20.360347 12.707881 21.126953 13.570312 C 21.893559 14.432745 23.083334 15 24.5 15 C 25.916666 15 27.106441 14.432744 27.873047 13.570312 C 28.639653 12.707882 29 11.597222 29 10.5 C 29 9.4027779 28.639653 8.2921194 27.873047 7.4296875 C 27.106441 6.5672556 25.916666 6 24.5 6 z M 24.5 8 C 25.416666 8 25.976893 8.3077444 26.376953 8.7578125 C 26.777013 9.2078806 27 9.8472221 27 10.5 C 27 11.152778 26.777013 11.792119 26.376953 12.242188 C 25.976893 12.692255 25.416666 13 24.5 13 C 23.583334 13 23.023107 12.692256 22.623047 12.242188 C 22.222987 11.792118 22 11.152778 22 10.5 C 22 9.8472221 22.222987 9.2078806 22.623047 8.7578125 C 23.023107 8.3077444 23.583334 8 24.5 8 z M 18.005859 10.587891 C 16.160859 12.321891 15 14.775 15 17.5 C 15 19.268594 15.491906 20.920303 16.337891 22.337891 C 14.89163 23.784151 14 25.785043 14 28 C 14 30.969534 15.607931 33.547305 18 34.927734 L 18 47 A 1.0001 1.0001 0 0 0 18.292969 47.707031 L 20.292969 49.707031 A 1.0001 1.0001 0 0 0 21 50 L 23 50 A 1.0001 1.0001 0 0 0 23.707031 49.707031 L 25.707031 47.707031 A 1.0001 1.0001 0 0 0 26 47 L 26 45 A 1.0001 1.0001 0 0 0 25.707031 44.292969 L 24.914062 43.5 L 25.707031 42.707031 A 1.0001 1.0001 0 0 0 26 42 L 26 40 A 1.0001 1.0001 0 0 0 25.832031 39.445312 L 25.201172 38.5 L 25.832031 37.554688 A 1.0001 1.0001 0 0 0 26 37 L 26 34.927734 C 26.722771 34.510633 27.371339 33.983333 27.927734 33.369141 C 29.622602 34.082594 31.505554 34.181908 33.251953 33.666016 L 41.292969 41.707031 A 1.0001 1.0001 0 0 0 42 42 L 45 42 A 1.0001 1.0001 0 0 0 45.707031 41.707031 L 46.707031 40.707031 A 1.0001 1.0001 0 0 0 47 40 L 47 37 A 1.0001 1.0001 0 0 0 46.707031 36.292969 L 45.707031 35.292969 A 1.0001 1.0001 0 0 0 45 35 L 44 35 L 44 34 A 1.0001 1.0001 0 0 0 43.707031 33.292969 L 41.707031 31.292969 A 1.0001 1.0001 0 0 0 41 31 L 40 31 L 40 30 A 1.0001 1.0001 0 0 0 39.707031 29.292969 L 38.664062 28.25 C 39.460018 25.541608 38.787727 22.498664 36.644531 20.355469 C 35.844267 19.555204 34.918457 18.962623 33.931641 18.572266 C 33.972627 18.219938 34 17.863371 34 17.5 C 34 14.775 32.840094 12.321891 30.996094 10.587891 C 30.985094 11.446891 30.810094 12.265672 30.496094 13.013672 C 31.436094 14.266672 32 15.816 32 17.5 C 32 17.695423 31.989682 17.888493 31.974609 18.080078 C 31.650595 18.040227 31.325944 18.011719 31 18.011719 C 28.959343 18.011719 26.918263 18.792675 25.355469 20.355469 C 25.267716 20.443221 25.191617 20.533451 25.111328 20.623047 C 24.155797 20.221251 23.104412 20 22 20 C 20.516313 20 19.134273 20.408302 17.945312 21.107422 C 17.350995 20.035513 17 18.811378 17 17.5 C 17 15.816 17.564859 14.266672 18.505859 13.013672 C 18.191859 12.265672 18.016859 11.446891 18.005859 10.587891 z M 31 19.988281 C 31.186858 19.988281 31.374291 19.997716 31.560547 20.015625 C 31.559167 20.019484 31.558027 20.023488 31.556641 20.027344 C 31.809001 20.047805 32.059455 20.094495 32.308594 20.142578 C 33.37051 20.386364 34.385522 20.924585 35.230469 21.769531 C 37.606881 24.145944 37.606881 27.854056 35.230469 30.230469 C 33.545913 31.915025 31.209851 32.312819 29.136719 31.609375 C 29.68448 30.524908 30 29.30172 30 28 C 30 27.693934 29.980455 27.392666 29.947266 27.095703 C 29.943342 27.061669 29.937953 27.028028 29.933594 26.994141 C 29.956175 26.994894 29.977234 27 30 27 C 31.105 27 32 26.105 32 25 C 32 23.895 31.105 23 30 23 C 29.47556 23 29.003089 23.20714 28.646484 23.537109 C 28.168128 22.82453 27.573547 22.200068 26.896484 21.675781 C 28.066399 20.563474 29.528784 19.988281 31 19.988281 z M 22 22 C 22.986731 22 23.906356 22.231291 24.71875 22.634766 L 24.90625 22.736328 C 25.832335 23.242594 26.606521 23.981529 27.148438 24.882812 C 27.150671 24.886556 27.152071 24.890782 27.154297 24.894531 C 27.414094 25.328785 27.618033 25.801875 27.761719 26.302734 C 27.774845 26.348937 27.784809 26.396672 27.796875 26.443359 C 27.847217 26.636295 27.886492 26.834369 27.917969 27.035156 C 27.928775 27.104819 27.94074 27.173624 27.949219 27.244141 C 27.979333 27.49187 28 27.742531 28 28 C 28 28.30816 27.971137 28.60692 27.927734 28.900391 C 27.921231 28.945456 27.915665 28.990454 27.908203 29.035156 C 27.748803 29.967016 27.382047 30.818326 26.851562 31.546875 L 26.595703 31.898438 C 25.504331 33.191011 23.866667 34 22 34 C 18.629915 34 16 31.370085 16 28 C 16 26.42078 16.582437 25.008927 17.542969 23.949219 C 18.253621 24.713085 19.089201 25.357245 20.015625 25.855469 C 20.012074 25.904207 20 25.950351 20 26 C 20 27.105 20.895 28 22 28 C 23.105 28 24 27.105 24 26 C 24 24.895 23.105 24 22 24 C 21.699117 24 21.41607 24.070566 21.160156 24.189453 C 20.399853 23.808653 19.707712 23.314644 19.121094 22.710938 C 19.970764 22.256751 20.949068 22 22 22 z M 37.783203 30.197266 L 38 30.414062 L 38 32 A 1.0001 1.0001 0 0 0 39 33 L 40.585938 33 L 42 34.414062 L 42 36 A 1.0001 1.0001 0 0 0 43 37 L 44.585938 37 L 45 37.414062 L 45 39.585938 L 44.585938 40 L 42.414062 40 L 35.201172 32.787109 C 35.713149 32.468077 36.198909 32.090154 36.644531 31.644531 C 37.090537 31.198525 37.464483 30.710035 37.783203 30.197266 z M 20 35.738281 C 20.640198 35.902454 21.30741 36 22 36 C 22.69259 36 23.359802 35.902454 24 35.738281 L 24 36.697266 L 23.167969 37.945312 A 1.0001 1.0001 0 0 0 23.167969 39.054688 L 24 40.302734 L 24 41.585938 L 22.792969 42.792969 A 1.0001 1.0001 0 0 0 22.792969 44.207031 L 24 45.414062 L 24 46.585938 L 22.585938 48 L 21.414062 48 L 20 46.585938 L 20 35.738281 z"/></svg>