<svg xmlns="http://www.w3.org/2000/svg"  viewBox="0 0 50 50" width="500px" height="500px"><path d="M 15 3 C 13.355469 3 12 4.355469 12 6 L 12 8.832031 C 11.980469 8.941406 11.980469 9.050781 12 9.15625 L 12 14.09375 C 9.171875 14.570313 7 17.039063 7 20 L 7 21 L 6.5 21 C 5.132813 21 4 22.132813 4 23.5 L 4 32.5 C 4 33.867188 5.132813 35 6.5 35 L 12 35 L 12 39.832031 C 11.980469 39.941406 11.980469 40.050781 12 40.15625 L 12 44 C 12 45.644531 13.355469 47 15 47 L 35 47 C 36.644531 47 38 45.644531 38 44 L 38 40.167969 C 38.019531 40.058594 38.019531 39.949219 38 39.84375 L 38 9.167969 C 38.019531 9.058594 38.019531 8.949219 38 8.84375 L 38 6 C 38 4.355469 36.644531 3 35 3 Z M 15 5 L 35 5 C 35.554688 5 36 5.445313 36 6 L 36 8 L 14 8 L 14 6 C 14 5.445313 14.445313 5 15 5 Z M 14 10 L 36 10 L 36 39 L 14 39 L 14 35 L 19.5 35 C 20.867188 35 22 33.867188 22 32.5 L 22 23.5 C 22 22.132813 20.867188 21 19.5 21 L 19 21 L 19 20 C 19 17.039063 16.828125 14.570313 14 14.09375 Z M 13 16 C 15.21875 16 17 17.78125 17 20 L 17 21 L 9 21 L 9 20 C 9 17.78125 10.78125 16 13 16 Z M 6.5 23 L 7.832031 23 C 7.941406 23.019531 8.050781 23.019531 8.15625 23 L 17.832031 23 C 17.941406 23.019531 18.050781 23.019531 18.15625 23 L 19.5 23 C 19.785156 23 20 23.214844 20 23.5 L 20 32.5 C 20 32.785156 19.785156 33 19.5 33 L 6.5 33 C 6.214844 33 6 32.785156 6 32.5 L 6 23.5 C 6 23.214844 6.214844 23 6.5 23 Z M 14 41 L 36 41 L 36 44 C 36 44.554688 35.554688 45 35 45 L 15 45 C 14.445313 45 14 44.554688 14 44 Z M 22 42 C 21.640625 41.996094 21.304688 42.183594 21.121094 42.496094 C 20.941406 42.808594 20.941406 43.191406 21.121094 43.503906 C 21.304688 43.816406 21.640625 44.003906 22 44 L 28 44 C 28.359375 44.003906 28.695313 43.816406 28.878906 43.503906 C 29.058594 43.191406 29.058594 42.808594 28.878906 42.496094 C 28.695313 42.183594 28.359375 41.996094 28 42 Z"/></svg>