<svg xmlns="http://www.w3.org/2000/svg"  viewBox="0 0 64 64" width="512px" height="512px"><path d="M 5 4 C 4.445313 4 4 4.449219 4 5 L 4 11 C 4 11.550781 4.445313 12 5 12 C 5.554688 12 6 11.550781 6 11 L 6 6 L 11 6 C 11.554688 6 12 5.550781 12 5 C 12 4.449219 11.554688 4 11 4 Z M 53 4 C 52.445313 4 52 4.449219 52 5 C 52 5.550781 52.445313 6 53 6 L 58 6 L 58 11 C 58 11.550781 58.445313 12 59 12 C 59.554688 12 60 11.550781 60 11 L 60 5 C 60 4.449219 59.554688 4 59 4 Z M 39.238281 5.328125 C 38.691406 5.242188 38.179688 5.613281 38.09375 6.160156 L 37.777344 8.132813 C 37.691406 8.679688 38.0625 9.191406 38.605469 9.28125 C 38.660156 9.289063 38.710938 9.292969 38.765625 9.292969 C 39.246094 9.292969 39.671875 8.941406 39.75 8.453125 L 40.066406 6.476563 C 40.15625 5.929688 39.785156 5.417969 39.238281 5.328125 Z M 30.75 6.015625 C 30.183594 5.988281 29.730469 6.421875 29.707031 6.976563 C 29.6875 7.527344 30.117188 7.992188 30.667969 8.015625 C 31.675781 8.054688 32.699219 8.160156 33.710938 8.328125 C 33.765625 8.335938 33.820313 8.339844 33.875 8.339844 C 34.351563 8.339844 34.777344 7.992188 34.859375 7.503906 C 34.949219 6.957031 34.582031 6.445313 34.035156 6.351563 C 32.941406 6.171875 31.835938 6.058594 30.75 6.015625 Z M 27.242188 6.117188 C 23.816406 6.453125 20.589844 7.484375 17.648438 9.183594 C 12.21875 12.320313 8.203125 17.570313 6.335938 23.96875 C 6.183594 24.5 6.484375 25.054688 7.015625 25.207031 C 7.109375 25.234375 7.203125 25.25 7.296875 25.25 C 7.730469 25.25 8.128906 24.964844 8.257813 24.527344 C 9.976563 18.625 13.667969 13.792969 18.652344 10.917969 C 21.34375 9.359375 24.300781 8.414063 27.441406 8.105469 C 27.992188 8.050781 28.394531 7.5625 28.339844 7.011719 C 28.285156 6.460938 27.816406 6.0625 27.242188 6.117188 Z M 44.105469 6.8125 C 43.714844 6.800781 43.339844 7.023438 43.171875 7.402344 L 42.355469 9.226563 C 42.128906 9.734375 42.355469 10.324219 42.859375 10.550781 C 42.992188 10.609375 43.132813 10.640625 43.265625 10.640625 C 43.652344 10.640625 44.015625 10.417969 44.183594 10.046875 L 45 8.21875 C 45.222656 7.714844 44.996094 7.125 44.492188 6.898438 C 44.367188 6.839844 44.234375 6.8125 44.105469 6.8125 Z M 48.425781 9.554688 C 48.171875 9.582031 47.929688 9.707031 47.753906 9.921875 L 46.492188 11.46875 C 46.144531 11.898438 46.210938 12.53125 46.640625 12.878906 C 46.824219 13.027344 47.046875 13.101563 47.269531 13.101563 C 47.558594 13.101563 47.847656 12.976563 48.046875 12.734375 L 49.308594 11.183594 C 49.65625 10.753906 49.589844 10.121094 49.160156 9.773438 C 48.949219 9.597656 48.683594 9.53125 48.425781 9.554688 Z M 31.25 10.460938 C 30.074219 10.417969 28.917969 10.464844 27.800781 10.59375 C 27.253906 10.65625 26.859375 11.152344 26.921875 11.703125 C 26.988281 12.25 27.476563 12.636719 28.03125 12.578125 C 36.183594 11.644531 46.679688 15.527344 50.429688 26.265625 C 50.574219 26.679688 50.960938 26.9375 51.375 26.9375 C 51.484375 26.9375 51.597656 26.917969 51.703125 26.878906 C 52.226563 26.699219 52.5 26.128906 52.316406 25.609375 C 48.71875 15.300781 39.488281 10.75 31.25 10.460938 Z M 24.769531 11.25 C 24.640625 11.234375 24.507813 11.246094 24.375 11.285156 C 22.832031 11.734375 21.347656 12.371094 19.953125 13.175781 C 14.292969 16.445313 10.492188 22.363281 9.539063 29.410156 C 9.464844 29.957031 9.847656 30.460938 10.390625 30.535156 C 10.4375 30.542969 10.484375 30.546875 10.53125 30.546875 C 11.023438 30.546875 11.453125 30.179688 11.519531 29.679688 C 12.390625 23.25 15.832031 17.863281 20.953125 14.90625 C 22.207031 14.183594 23.546875 13.609375 24.933594 13.203125 C 25.464844 13.050781 25.769531 12.496094 25.613281 11.964844 C 25.496094 11.566406 25.15625 11.292969 24.769531 11.25 Z M 52.277344 13.359375 C 52.023438 13.316406 51.757813 13.371094 51.53125 13.535156 L 49.910156 14.707031 C 49.464844 15.027344 49.363281 15.65625 49.6875 16.105469 C 49.878906 16.375 50.1875 16.515625 50.5 16.515625 C 50.699219 16.515625 50.90625 16.457031 51.082031 16.328125 L 52.703125 15.15625 C 53.148438 14.832031 53.253906 14.207031 52.929688 13.761719 C 52.765625 13.535156 52.53125 13.398438 52.277344 13.359375 Z M 30.332031 14.871094 C 27.585938 14.972656 24.835938 15.722656 22.316406 17.175781 C 14.382813 21.757813 11.34375 31.460938 14.753906 41.316406 C 15.332031 42.984375 16.554688 45.242188 18.027344 47.347656 C 18.21875 47.628906 18.53125 47.777344 18.847656 47.777344 C 19.042969 47.777344 19.242188 47.71875 19.417969 47.597656 C 19.871094 47.28125 19.980469 46.65625 19.667969 46.203125 C 18.3125 44.265625 17.15625 42.140625 16.644531 40.660156 C 13.078125 30.355469 17.425781 22.3125 23.316406 18.910156 C 30.464844 14.78125 39.707031 17.054688 44.347656 24.09375 C 44.652344 24.554688 45.269531 24.683594 45.734375 24.378906 C 46.195313 24.074219 46.320313 23.453125 46.015625 22.992188 C 42.425781 17.550781 36.378906 14.640625 30.332031 14.871094 Z M 54.632813 17.9375 C 54.503906 17.933594 54.367188 17.957031 54.238281 18.003906 L 52.375 18.71875 C 51.855469 18.914063 51.597656 19.492188 51.796875 20.007813 C 51.945313 20.40625 52.328125 20.652344 52.730469 20.652344 C 52.847656 20.652344 52.96875 20.632813 53.085938 20.585938 L 54.953125 19.875 C 55.46875 19.675781 55.726563 19.097656 55.53125 18.582031 C 55.382813 18.195313 55.023438 17.953125 54.632813 17.9375 Z M 30.636719 18.984375 C 30.304688 18.992188 29.972656 19.019531 29.640625 19.058594 C 27.113281 19.347656 24.75 20.332031 22.804688 21.910156 C 22.375 22.257813 22.308594 22.886719 22.65625 23.316406 C 23.003906 23.746094 23.632813 23.8125 24.0625 23.464844 C 25.710938 22.128906 27.71875 21.289063 29.871094 21.042969 C 34.375 20.527344 38.773438 22.953125 40.839844 27.074219 C 41.148438 27.695313 41.398438 28.339844 41.582031 28.996094 C 42.289063 31.457031 44.199219 33.097656 47.105469 33.738281 C 47.695313 33.871094 48.351563 33.9375 49.078125 33.9375 C 49.546875 33.9375 50.042969 33.910156 50.566406 33.855469 L 54.109375 33.480469 C 54.660156 33.421875 55.054688 32.929688 55 32.378906 C 54.941406 31.828125 54.457031 31.4375 53.898438 31.488281 L 50.359375 31.863281 C 49.246094 31.984375 48.292969 31.957031 47.53125 31.785156 C 45.328125 31.300781 44.007813 30.210938 43.503906 28.453125 C 43.285156 27.679688 42.992188 26.914063 42.625 26.183594 C 40.339844 21.613281 35.601563 18.8125 30.636719 18.984375 Z M 30.785156 22.980469 C 30.554688 22.988281 30.328125 23.003906 30.097656 23.03125 C 27.359375 23.34375 24.941406 24.820313 23.46875 27.074219 C 21.996094 29.324219 21.601563 32.0625 22.375 34.566406 C 24.75 42.773438 30.691406 49.820313 38.277344 53.410156 C 38.414063 53.476563 38.558594 53.507813 38.703125 53.507813 C 39.078125 53.507813 39.4375 53.296875 39.609375 52.9375 C 39.84375 52.4375 39.632813 51.839844 39.132813 51.605469 C 32.058594 48.253906 26.511719 41.675781 24.285156 33.992188 C 23.683594 32.042969 23.996094 29.921875 25.140625 28.171875 C 26.289063 26.414063 28.175781 25.261719 30.324219 25.015625 C 33.152344 24.695313 35.945313 26.238281 37.261719 28.867188 C 37.457031 29.261719 37.617188 29.667969 37.734375 30.089844 C 38.433594 32.535156 39.851563 34.480469 41.949219 35.867188 C 42.410156 36.171875 43.03125 36.046875 43.335938 35.585938 C 43.640625 35.125 43.515625 34.503906 43.050781 34.199219 C 41.363281 33.082031 40.222656 31.511719 39.65625 29.539063 C 39.503906 29.003906 39.304688 28.476563 39.050781 27.972656 C 37.464844 24.808594 34.214844 22.867188 30.785156 22.980469 Z M 21.132813 24.453125 C 20.75 24.382813 20.34375 24.542969 20.117188 24.890625 C 17.828125 28.394531 17.429688 33.390625 19.050781 38.253906 C 22.5 48.617188 29.84375 55.660156 40.28125 58.628906 C 40.371094 58.65625 40.460938 58.667969 40.550781 58.667969 C 40.988281 58.667969 41.390625 58.382813 41.515625 57.941406 C 41.664063 57.410156 41.355469 56.855469 40.824219 56.703125 C 31.054688 53.925781 24.179688 47.328125 20.949219 37.621094 C 19.519531 33.332031 19.835938 28.980469 21.792969 25.984375 C 22.097656 25.519531 21.964844 24.898438 21.5 24.597656 C 21.386719 24.523438 21.261719 24.472656 21.132813 24.453125 Z M 46.925781 25.863281 C 46.796875 25.859375 46.664063 25.882813 46.535156 25.933594 C 46.019531 26.128906 45.769531 26.710938 45.96875 27.222656 C 46.222656 27.886719 46.4375 28.574219 46.605469 29.265625 C 46.714844 29.726563 47.125 30.03125 47.578125 30.03125 C 47.652344 30.03125 47.734375 30.023438 47.8125 30.003906 C 48.347656 29.875 48.679688 29.335938 48.546875 28.796875 C 48.359375 28.019531 48.117188 27.246094 47.828125 26.503906 C 47.679688 26.117188 47.316406 25.878906 46.925781 25.863281 Z M 31.304688 26.980469 C 31.054688 26.96875 30.804688 26.976563 30.550781 27.003906 C 28.976563 27.183594 27.648438 27.988281 26.816406 29.261719 C 26 30.511719 25.785156 32.046875 26.21875 33.453125 C 27.394531 37.527344 29.613281 41.332031 32.628906 44.453125 C 32.828125 44.65625 33.085938 44.761719 33.347656 44.761719 C 33.597656 44.761719 33.851563 44.667969 34.046875 44.480469 C 34.441406 44.09375 34.449219 43.460938 34.066406 43.0625 C 31.277344 40.175781 29.226563 36.660156 28.128906 32.878906 C 27.867188 32.027344 28 31.105469 28.488281 30.355469 C 28.992188 29.585938 29.804688 29.101563 30.78125 28.988281 C 31.945313 28.855469 33.117188 29.523438 33.6875 30.65625 C 33.765625 30.824219 33.832031 31 33.886719 31.175781 C 35.40625 36.496094 39.597656 40.277344 45.382813 41.550781 C 46.683594 41.839844 48.097656 41.96875 49.578125 41.929688 C 50.132813 41.917969 50.570313 41.457031 50.558594 40.90625 C 50.542969 40.355469 50.101563 39.921875 49.53125 39.933594 C 48.207031 39.960938 46.957031 39.851563 45.8125 39.597656 C 40.765625 38.488281 37.121094 35.21875 35.808594 30.628906 C 35.722656 30.335938 35.613281 30.042969 35.472656 29.765625 C 34.648438 28.117188 33.042969 27.066406 31.304688 26.980469 Z M 30.9375 31.003906 C 30.808594 31.011719 30.679688 31.046875 30.554688 31.109375 C 30.113281 31.328125 29.90625 31.835938 30.046875 32.296875 C 30.257813 33.039063 30.515625 33.777344 30.8125 34.5 C 30.972656 34.882813 31.347656 35.113281 31.738281 35.113281 C 31.867188 35.113281 31.996094 35.089844 32.121094 35.035156 C 32.632813 34.824219 32.875 34.242188 32.660156 33.730469 C 32.390625 33.078125 32.15625 32.402344 31.964844 31.730469 C 31.945313 31.667969 31.921875 31.609375 31.894531 31.554688 L 31.894531 31.550781 C 31.710938 31.183594 31.328125 30.980469 30.9375 31.003906 Z M 10.285156 32.375 C 9.734375 32.386719 9.292969 32.839844 9.300781 33.390625 C 9.375 38.269531 10.761719 43.175781 13.304688 47.582031 C 15.289063 51.019531 17.839844 53.953125 20.886719 56.300781 C 21.070313 56.441406 21.28125 56.511719 21.496094 56.511719 C 21.796875 56.511719 22.09375 56.375 22.289063 56.121094 C 22.625 55.679688 22.546875 55.054688 22.109375 54.71875 C 19.269531 52.527344 16.890625 49.789063 15.035156 46.578125 C 12.660156 42.46875 11.371094 37.894531 11.300781 33.359375 C 11.292969 32.8125 10.847656 32.375 10.300781 32.375 Z M 55.734375 35.316406 L 50.777344 35.84375 C 49.234375 36.007813 47.855469 35.957031 46.671875 35.695313 C 46.128906 35.578125 45.601563 35.917969 45.484375 36.453125 C 45.363281 36.996094 45.703125 37.53125 46.242188 37.648438 C 47.113281 37.839844 48.0625 37.9375 49.082031 37.9375 C 49.691406 37.9375 50.328125 37.902344 50.984375 37.832031 L 55.945313 37.308594 C 56.496094 37.25 56.894531 36.757813 56.832031 36.207031 C 56.777344 35.65625 56.292969 35.269531 55.734375 35.316406 Z M 33.175781 36.195313 C 33.046875 36.21875 32.921875 36.265625 32.808594 36.339844 C 32.34375 36.640625 32.210938 37.257813 32.511719 37.722656 C 36.265625 43.53125 42.640625 47 49.558594 47 C 50.113281 47 50.558594 46.550781 50.558594 46 C 50.558594 45.449219 50.109375 45 49.558594 45 C 43.320313 45 37.578125 41.875 34.1875 36.636719 C 33.964844 36.289063 33.558594 36.128906 33.175781 36.195313 Z M 55.046875 39.410156 L 53.023438 39.625 C 52.472656 39.6875 52.078125 40.175781 52.136719 40.726563 C 52.1875 41.238281 52.621094 41.621094 53.125 41.621094 C 53.160156 41.621094 53.195313 41.621094 53.234375 41.617188 L 55.253906 41.402344 C 55.804688 41.34375 56.203125 40.851563 56.144531 40.300781 C 56.085938 39.753906 55.605469 39.363281 55.046875 39.410156 Z M 35.699219 45.003906 C 35.445313 45.035156 35.203125 45.164063 35.03125 45.378906 C 34.6875 45.8125 34.757813 46.4375 35.191406 46.78125 C 39.136719 49.921875 43.707031 51.714844 48.402344 51.96875 C 48.421875 51.972656 48.4375 51.96875 48.457031 51.96875 C 48.984375 51.96875 49.425781 51.558594 49.453125 51.027344 C 49.484375 50.472656 49.0625 50.003906 48.511719 49.972656 C 44.234375 49.738281 40.054688 48.09375 36.4375 45.21875 C 36.21875 45.042969 35.953125 44.976563 35.699219 45.003906 Z M 21.277344 48.757813 C 21.023438 48.75 20.761719 48.835938 20.5625 49.027344 C 20.15625 49.402344 20.132813 50.035156 20.511719 50.4375 C 20.914063 50.871094 21.328125 51.28125 21.75 51.675781 C 21.945313 51.855469 22.1875 51.941406 22.433594 51.941406 C 22.699219 51.941406 22.96875 51.835938 23.164063 51.621094 C 23.539063 51.214844 23.515625 50.582031 23.109375 50.207031 C 22.71875 49.847656 22.34375 49.46875 21.972656 49.074219 C 21.785156 48.871094 21.53125 48.765625 21.277344 48.757813 Z M 5 52 C 4.445313 52 4 52.449219 4 53 L 4 59 C 4 59.550781 4.445313 60 5 60 L 11 60 C 11.554688 60 12 59.550781 12 59 C 12 58.449219 11.554688 58 11 58 L 6 58 L 6 53 C 6 52.449219 5.554688 52 5 52 Z M 59 52 C 58.445313 52 58 52.449219 58 53 L 58 58 L 53 58 C 52.445313 58 52 58.449219 52 59 C 52 59.550781 52.445313 60 53 60 L 59 60 C 59.554688 60 60 59.550781 60 59 L 60 53 C 60 52.449219 59.554688 52 59 52 Z M 25.242188 52.234375 C 24.992188 52.1875 24.71875 52.238281 24.496094 52.394531 C 24.039063 52.710938 23.925781 53.332031 24.238281 53.785156 C 25.273438 55.289063 27.417969 56.714844 27.511719 56.773438 C 27.679688 56.886719 27.871094 56.9375 28.0625 56.9375 C 28.386719 56.9375 28.703125 56.78125 28.894531 56.488281 C 29.203125 56.027344 29.074219 55.40625 28.613281 55.105469 C 28.085938 54.753906 26.5625 53.632813 25.886719 52.652344 C 25.726563 52.421875 25.492188 52.28125 25.242188 52.234375 Z M 44.046875 53.429688 C 43.664063 53.5 43.339844 53.789063 43.25 54.191406 C 43.128906 54.730469 43.46875 55.265625 44.007813 55.386719 C 44.890625 55.582031 45.789063 55.734375 46.6875 55.839844 C 46.726563 55.84375 46.765625 55.84375 46.804688 55.84375 C 47.308594 55.84375 47.738281 55.464844 47.796875 54.953125 C 47.859375 54.40625 47.464844 53.914063 46.917969 53.847656 C 46.085938 53.753906 45.253906 53.617188 44.441406 53.4375 C 44.308594 53.40625 44.175781 53.40625 44.046875 53.429688 Z"/></svg>